# xmcd
#
# Track frame offsets:
#	150
#	13687
#	27417
#	40865
#	51655
#	67132
#	80555
#	94272
#	106812
#	118025
#	135595
#	151235
#	162507
#	176250
#	189942
#	202275
#	214810
#	230840
#	245735
#	258497
#
# Disc length: 3622
#
# Revision: 1
# Processed by: cddbd v1.5.1PL0 Copyright (c) Steve Scherf et al.
# Submitted via: CDex 1.40Beta8
# Normalized: r0:TDELIM( - )
#
DISCID=280e2414
DTITLE=Various Artist - 20 Great Blues Recordings Of The 50's And 60's
DYEAR=1988
DGENRE=Blues
TTITLE0=Lightning Hopkins - Rolling And Rolling
TTITLE1=Bobby Bland - Drifting From Town To Town
TTITLE2=Roosevelt Sykes - Gone With The Wind
TTITLE3=Big Mama Thornton - Me And My Chauffeur
TTITLE4=Jimmy Witherspoon - No Rollin' Blues
TTITLE5=George Smith - Blues In The Dark
TTITLE6=B B King - You Upset Me Baby
TTITLE7=Elmore James - Dark And Dreary
TTITLE8=Ike Turner's Kings Of Rythm - I Ain't Drunk
TTITLE9=Howling Wolf - Crying At Daybreak
TTITLE10=Johnny Guitar Watson - Three Hours Past Midnight
TTITLE11=Lowell Fulson - Talkin' Woman
TTITLE12=George Smith - Telephone Blues
TTITLE13=Eddie Burns - She Keeps Me Guessing
TTITLE14=Pee Wee Crayton - Central Avenue Blues
TTITLE15=B B King - Ten Long Years
TTITLE16=Jimmy McCracklin - The Panic's On
TTITLE17=Elmore James - Sunnyland
TTITLE18=Floyd Dixon - Cow Town
TTITLE19=Joe Hill Louis - Heartache Baby
EXTD=YEAR: 1988 ID3G: 0
EXTT0=
EXTT1=
EXTT2=
EXTT3=
EXTT4=
EXTT5=
EXTT6=
EXTT7=
EXTT8=
EXTT9=
EXTT10=
EXTT11=
EXTT12=
EXTT13=
EXTT14=
EXTT15=
EXTT16=
EXTT17=
EXTT18=
EXTT19=
PLAYORDER=
